<svg width="193" height="44" viewBox="0 0 193 44" fill="none" xmlns="http://www.w3.org/2000/svg">
<path d="M13.339 29.3823C19.8423 29.3823 22.379 25.3927 22.379 18.5669C22.379 11.7424 19.4124 6.98401 13.5295 6.98401H6.93627V29.3823H13.339ZM0 1.02488H14.3908C23.5254 1.02488 29.4083 8.42665 29.4083 18.5669C29.4083 24.1416 27.5424 29.0455 23.9553 32.0732C21.4201 34.1867 18.1196 35.389 13.8162 35.389H0V1.02488ZM49.2186 23.0863C49.2186 18.2789 46.9715 15.0106 43.0018 15.0106C38.9834 15.0106 36.782 18.2789 36.782 23.0863C36.782 27.8922 38.9834 31.1114 43.0018 31.1114C46.9715 31.1114 49.2186 27.8922 49.2186 23.0863ZM30.1827 23.0863C30.1827 15.732 35.3963 10.0608 43.0018 10.0608C50.6058 10.0608 55.8194 15.732 55.8194 23.0863C55.8194 30.4376 50.6058 36.1103 43.0018 36.1103C35.3948 36.1103 30.1812 30.4391 30.1812 23.0863M56.8942 23.0863C56.8942 15.732 61.6779 10.0608 69.1386 10.0608C75.5017 10.0608 79.4226 13.7625 80.2839 19.0967H73.9223C73.4924 16.9342 71.8186 15.2986 69.4267 15.2986C65.5043 15.2986 63.4966 18.3279 63.4966 23.0863C63.4966 27.7482 65.361 30.8725 69.3307 30.8725C71.9618 30.8725 73.8278 29.4789 74.2577 26.6915H80.5233C80.0933 31.9293 76.0261 36.1103 69.474 36.1103C61.7267 36.1103 56.8942 30.4391 56.8942 23.0863ZM97.4599 35.3904V32.5066H97.3166C95.6427 34.7656 93.7296 36.0628 90.2858 36.0628C84.8329 36.0628 81.7717 32.5557 81.7717 27.1709V10.7332H88.2278V26.0651C88.2278 28.949 89.5206 30.5356 92.2935 30.5356C95.3546 30.5356 97.2206 28.2291 97.2206 24.9609V10.7332H103.725V35.3904H97.4599ZM135.418 35.3904H141.92V10.7332H135.418V35.3904ZM135.418 7.28719H141.92V1.17647H135.418V7.28719ZM161.79 21.979C161.79 18.3754 159.877 15.3001 155.955 15.3001C152.654 15.3001 150.454 17.8945 150.454 22.028C150.454 26.2091 152.654 28.6611 156.003 28.6611C160.117 28.6611 161.79 25.6332 161.79 21.9806M144.619 36.1103H151.073C151.601 37.648 152.987 38.8502 156 38.8502C159.684 38.8502 161.454 37.0721 161.454 33.7074V31.015H161.31C159.874 32.6491 158.01 33.8988 154.9 33.8988C149.448 33.8988 144.092 29.5738 144.092 22.1245C144.092 14.7702 148.491 10.0608 154.709 10.0608C157.771 10.0608 160.018 11.2615 161.501 13.3291H161.597V10.7332H167.862V33.5144C167.862 36.9756 166.761 39.3295 164.945 41.0127C162.887 42.9347 159.731 43.8 156.097 43.8C149.4 43.8 145.287 40.9162 144.617 36.1103M177.015 14.0979H177.158C178.833 11.4545 181.081 10.0608 184.429 10.0608C189.499 10.0608 192.894 13.9049 192.894 19.2881V35.389H186.389V20.2499C186.389 17.6066 184.858 15.732 182.132 15.732C179.262 15.732 177.158 18.0384 177.158 21.4031V35.389H170.653V10.7332H177.015V14.0979ZM120.594 14.6738C115.523 13.571 113.132 12.7532 113.132 9.96435C113.132 7.51391 115.57 5.92722 119.302 5.92722C122.707 5.92722 125.309 7.5323 125.843 10.7332H132.513C131.835 4.0603 126.906 0.400024 119.349 0.400024C111.746 0.400024 106.244 3.90871 106.244 10.6856C106.244 17.847 111.84 19.4811 117.963 20.8748C123.176 22.0771 126.429 22.7494 126.429 26.1126C126.429 29.2859 123.32 30.5356 119.781 30.5356C114.903 30.5356 112.559 28.9014 112.079 24.7679H105.288C105.527 32.0257 110.788 36.1578 120.067 36.1578C127.768 36.1578 133.364 32.2662 133.364 25.2963C133.364 17.8945 127.624 16.2129 120.594 14.6738Z" fill="#050038"/>
</svg>
