<svg width="89" height="55" viewBox="0 0 89 55" fill="none" xmlns="http://www.w3.org/2000/svg">
<path d="M4.20348 10.0742V13.8341H0V18.737H4.20348V38.4463C4.20348 39.9418 5.72627 41.1398 7.64106 41.1398C9.55584 41.1398 11.1148 39.9509 11.1148 38.4555V18.746H16.7024V13.8433H11.1148V10.0742C11.1148 5.53901 14.6127 4.70253 19.4011 5.78422V0.881337C12.6587 -0.647738 4.20348 0.0631744 4.20348 10.0742ZM25.7335 18.746H25.5888V13.8433H19.9952V38.4616C19.9952 39.9571 21.5029 41.1552 23.4328 41.1552C25.3626 41.1552 26.8975 39.9571 26.8975 38.4616V26.0667C26.8975 20.22 30.6457 18.7339 35.1838 18.7339V13.2181C31.0798 13.1966 27.2352 14.5725 25.7335 18.746ZM74.0405 13.2304C67.3764 13.2304 61.9788 16.5858 61.9788 23.1801C61.9788 26.6918 63.5137 29.2842 65.9592 30.942C65.7783 31.0614 65.6033 31.184 65.4314 31.3127C62.401 33.5895 62.0753 37.5148 64.8525 39.6568C63.4926 40.8824 61.5657 43.0765 61.5657 46.1347C61.5657 50.9884 66.0285 54.1232 74.0374 54.1232C82.0464 54.1232 88.1616 50.3082 88.1616 44.434C88.1616 38.5597 84.1451 36.2524 76.8176 36.2524H72.0261C68.67 36.2524 68.9565 33.896 70.0631 32.8816C70.1204 32.8296 70.1808 32.7805 70.2471 32.7284C71.4943 32.9948 72.7661 33.1243 74.0405 33.1145C80.7076 33.1145 86.1021 29.7438 86.1021 23.1709C86.1171 21.8099 85.8533 20.4606 85.3271 19.2088C86.3478 18.9251 87.3992 18.7718 88.4571 18.7522V13.8494C85.493 13.8494 83.5812 14.0516 81.5549 15.0536C79.5014 13.8249 76.8871 13.215 74.0405 13.215V13.2304ZM70.3767 41.1644H76.8117C79.4531 41.1644 81.2533 41.9979 81.2533 44.434C81.2533 47.7067 78.4912 49.2143 74.0163 49.2143C67.1472 49.1989 67.5573 43.4626 70.3767 41.149V41.1644ZM74.0405 28.2117C71.1909 28.2117 68.8751 27.0871 68.8751 23.1771C68.8751 19.2671 71.1909 18.1425 74.0405 18.1425C76.89 18.1425 79.2088 19.264 79.2088 23.1771C79.2088 27.0901 76.896 28.2117 74.0405 28.2117ZM47.725 13.215C40.2346 13.215 35.6632 17.9249 35.6632 27.1821C35.6632 36.4393 40.2407 41.149 47.725 41.149C55.2092 41.149 59.7866 36.4393 59.7866 27.1821C59.7866 17.9249 55.2182 13.215 47.725 13.215ZM47.725 36.237C44.8724 36.237 42.5595 35.0603 42.5595 27.1821C42.5595 19.3038 44.8875 18.1333 47.725 18.1333C50.5624 18.1333 52.8904 19.3068 52.8904 27.1821C52.8904 35.0573 50.5775 36.237 47.725 36.237Z" fill="#050038"/>
</svg>
